<svg xmlns="http://www.w3.org/2000/svg" viewBox="0 0 94.02 123.19"><defs><style>.cls-1,.cls-2,.cls-3,.cls-4{fill:none;stroke-miterlimit:10;}.cls-1{stroke:#f15a29;}.cls-1,.cls-2,.cls-3{stroke-width:3px;}.cls-2{stroke:#ed1c24;}.cls-3{stroke:#7f3f98;}.cls-4{stroke:#00aeef;stroke-width:4px;}</style></defs><title>Asset 63</title><g id="Layer_2" data-name="Layer 2"><g id="Layer_1-2" data-name="Layer 1"><path class="cls-1" d="M57.12,65.8S47.25,59.55,56.05,52s7.9-13,9-14.69,7.75-5,9-3.29,1.22,10.48,2.89,13.61S82,58.81,80.35,60.12,67.72,63.77,66.6,65.8,57.12,65.8,57.12,65.8Z"/><path class="cls-2" d="M54.81,61.12S60,51.42,66.6,51s7.2,3.75,7,5.08-3,6.17-7,6.64-6.17,1.25-10.57,0"/><path class="cls-1" d="M36.63,66.58s9.88-6.25,1.07-13.76-7.9-13-9-14.7-7.75-5-9-3.28-1.22,10.48-2.89,13.6S11.73,59.58,13.4,60.89,26,64.55,27.16,66.58,36.63,66.58,36.63,66.58Z"/><path class="cls-2" d="M38.94,61.9s-5.19-9.7-11.78-10.17-7.21,3.75-7,5.08,3,6.18,7.05,6.65,6.16,1.25,10.56,0"/><path class="cls-1" d="M71.42,92.47s2-14.16-1.18-17.07-10-1.36-9.64,2.33.59,9.11-7.08,9.31c0,0-3.65.13-5.46.13S42.61,87,42.61,87c-7.67-.2-7.48-5.63-7.08-9.31S29,72.49,25.89,75.4,24.7,92.47,24.7,92.47s11,4.19,11.38,6.94-9.41,4-9.41,6.94,13.87,9.58,21.39,9c7.53.58,21.4-6,21.4-9s-9.84-4.19-9.41-6.94S71.42,92.47,71.42,92.47Z"/><path class="cls-2" d="M36.12,111.22s.19-13.08,8.79-12.88,12.9-1.41,14.27,12.88"/><path class="cls-2" d="M40.44,101.23s7.13,7,14.37,0"/><path class="cls-3" d="M41.24,5.85s-2.49,6.64-2.42,10.88,2.5,12.44,2.42,14.88,3.09,12.24,3.32,18.53a55.23,55.23,0,0,1,0,7.77"/><path class="cls-3" d="M52.78,5.85s2.49,6.64,2.42,10.88-2.5,12.44-2.42,14.88-3.09,12.24-3.31,18.53a55.23,55.23,0,0,0,0,7.77"/><ellipse class="cls-4" cx="47.01" cy="61.59" rx="45.01" ry="59.59"/></g></g></svg>