<svg xmlns="http://www.w3.org/2000/svg" viewBox="0 0 57.95 90"><defs><style>.cls-1,.cls-2,.cls-3{fill:none;stroke-miterlimit:10;}.cls-1{stroke:#f15a29;}.cls-2{stroke:#ed1c24;}.cls-3{stroke:#7f3f98;}</style></defs><title>Asset 20</title><g id="Layer_2" data-name="Layer 2"><g id="Layer_1-2" data-name="Layer 1"><path class="cls-1" d="M37.57,49.07s-8.28-5.1-.89-11.22,6.63-10.58,7.52-12,6.51-4.08,7.53-2.67,1,8.54,2.42,11.09,4.33,9.08,2.93,10.15-10.6,3-11.55,4.64S37.57,49.07,37.57,49.07Z"/><path class="cls-2" d="M35.64,45.25S40,37.34,45.53,37s6,3.06,5.92,4.14-2.53,5-5.92,5.42-5.17,1-8.87,0"/><path class="cls-1" d="M20.38,49.7s8.28-5.1.89-11.22-6.63-10.58-7.52-12-6.5-4.08-7.52-2.68-1,8.54-2.43,11.09S-.53,44,.87,45.06s10.6,3,11.55,4.64S20.38,49.7,20.38,49.7Z"/><path class="cls-2" d="M22.31,45.88S18,38,12.42,37.59s-6,3.06-5.92,4.15,2.53,5,5.92,5.41,5.17,1,8.87,0"/><path class="cls-1" d="M49.58,70.81s1.66-11.54-1-13.92-8.42-1.1-8.09,1.9.5,7.43-6,7.59c0,0-3.06.11-4.58.11s-4.58-.11-4.58-.11c-6.44-.16-6.27-4.58-5.94-7.59s-5.45-4.27-8.1-1.9-1,13.92-1,13.92,9.19,3.42,9.55,5.66S12,79.69,12,82.13s11.64,7.81,18,7.34c6.32.47,18-4.9,18-7.34s-8.26-3.41-7.9-5.66S49.58,70.81,49.58,70.81Z"/><path class="cls-2" d="M19.94,86.1s.17-10.66,7.39-10.5,10.82-1.15,12,10.5"/><path class="cls-2" d="M23.57,78s6,5.7,12.07,0"/><path class="cls-3" d="M24.24.18s-2.08,5.41-2,8.87,2.09,10.15,2,12.13,2.6,10,2.79,15.12a44.4,44.4,0,0,1,0,6.33"/><path class="cls-3" d="M33.94.18S36,5.59,36,9.05s-2.09,10.15-2,12.13-2.6,10-2.79,15.12a44.4,44.4,0,0,0,0,6.33"/></g></g></svg>