<svg xmlns="http://www.w3.org/2000/svg" viewBox="0 0 238.02 194.09"><defs><style>.cls-1{fill:none;stroke:#27aae1;stroke-miterlimit:10;stroke-width:4px;}</style></defs><title>Asset 12</title><g id="Layer_2" data-name="Layer 2"><g id="Layer_1-2" data-name="Layer 1"><path class="cls-1" d="M99.79,3.08S83.1,4.46,76.7,10.91s-35.25,18-40.19,18.89S2.48,177.55,2.07,187.23l25.09,4.56L55.87,74.94s-4.12,76.46,0,88.43-3.7,18-3.7,18,35.43,14.74,37.08,9.21-.82-33.16,2.89-38.23-5.77-78.3-.83-93S99.79,3.08,99.79,3.08Z"/><path class="cls-1" d="M138.23,2.19s16.7,1.38,23.1,7.83,35.24,18,40.19,18.88,34,147.76,34.43,157.43l-25.09,4.57L182.15,74s4.12,76.46,0,88.44,3.71,18,3.71,18-35.44,14.74-37.09,9.22.83-33.17-2.88-38.23,5.77-78.31.82-93.05S138.23,2.19,138.23,2.19Z"/></g></g></svg>