<svg xmlns="http://www.w3.org/2000/svg" viewBox="0 0 229.94 185.37"><defs><style>.cls-1{fill:none;stroke:#fbb040;stroke-miterlimit:10;stroke-width:4px;}</style></defs><title>Asset 13</title><g id="Layer_2" data-name="Layer 2"><g id="Layer_1-2" data-name="Layer 1"><path class="cls-1" d="M81.83,183.31c-5.68-.19-19-4.91-27.37-8.18,2.2-4.1,3.5-10.12.94-17.57-2.8-8.15-1.35-57.57.23-86.81l-7.48-1.26L20.33,182.75,2.27,179.47c1.6-10.5,7.31-40.78,14.2-74C26.67,56.3,32.5,34,34.65,29,42.8,26.68,68.71,16,75.26,9.44,78.56,6.11,86.1,4.2,91.5,3.3c-1.11,11.38-4.08,39.07-7.81,50.19-2.76,8.22-1.7,29.06.1,57.6.88,13.93,2,31.21,1.06,34.67-2.59,4-2.78,12.58-2.78,26C82.07,175.81,82.07,180.66,81.83,183.31Z"/><path class="cls-1" d="M148.11,182.42c-.24-2.65-.24-7.51-.24-11.57,0-13.4-.19-22-2.78-26-.91-3.47.18-20.74,1.06-34.67,1.8-28.54,2.86-49.38.1-57.6-3.73-11.12-6.71-38.81-7.81-50.2,5.4.91,12.93,2.82,16.23,6.14,6.55,6.6,32.46,17.25,40.61,19.56,2.15,5,8,27.31,18.18,76.46,6.89,33.24,12.61,63.51,14.21,74l-18.06,3.29L181.78,68.6l-7.47,1.26c1.58,29.23,3,78.66.23,86.8-2.57,7.46-1.26,13.48.93,17.58C167.07,177.5,153.78,182.23,148.11,182.42Z"/></g></g></svg>