<svg xmlns="http://www.w3.org/2000/svg" viewBox="0 0 120.76 39.59"><defs><style>.cls-1{fill:none;stroke:#f7941d;stroke-miterlimit:10;stroke-width:4px;}</style></defs><title>Asset 5</title><g id="Layer_2" data-name="Layer 2"><g id="Layer_1-2" data-name="Layer 1"><path class="cls-1" d="M65,37.59c-2.78,0-4.49,0-4.59,0s-1.87,0-4.65,0c-28.36,0-41.82-1.2-48.11-2.2a132.21,132.21,0,0,1,23.59-5.91l3-.5.18-3.26c.21-3.63,1.23-14.19,3.5-19.5C38.32,5.38,43.2,2,59.11,2h2.54C74.85,2,82.07,4.52,82.8,6.22c2.27,5.31,3.3,15.87,3.5,19.5L86.48,29l3,.5a133.08,133.08,0,0,1,23.59,5.91c-6.29,1-19.76,2.2-48.1,2.2Z"/></g></g></svg>